# xmcd CD database file
#
# Track frame offsets:
#	150
#	16353
#	32441
#	52617
#	73957
#	85192
#	104906
#	127954
#	146201
#	161340
#	175863
#	195927
#	209136
#
# Disc length: 3085 seconds
#
# Revision: 0
# Processed by: cddbd v1.5.2PL0 Copyright (c) Steve Scherf et al.
# Submitted via: CDex 1.51
#
DISCID=b30c0b0d
DTITLE=Marianne Rosenberg - I'm a Woman
DYEAR=2007
DGENRE=Jazz
TTITLE0=The more I see you
TTITLE1=Wat Liebe aus uns macht
TTITLE2=Hallo mein Freund
TTITLE3=Ich muss dich wiedersehn
TTITLE4=I'm a woman
TTITLE5=Allet passiert imma mir
TTITLE6=You go to my head
TTITLE7=Sag mir wo die Liebe ist
TTITLE8=Im Schwarzen Cafe
TTITLE9=Für mich soll's rote Rosen regnen
TTITLE10=Ev'rytime we say goodbye
TTITLE11=Be sue it's true
TTITLE12=Wenn ick jeh
EXTD=YEAR: 2007
EXTT0=
EXTT1=
EXTT2=
EXTT3=
EXTT4=
EXTT5=
EXTT6=
EXTT7=
EXTT8=
EXTT9=
EXTT10=
EXTT11=
EXTT12=
PLAYORDER=
